<svg width="26" height="16" viewBox="0 0 26 16" fill="none" xmlns="http://www.w3.org/2000/svg">
<path d="M9.94 12.34H4.38L3.46 15H0.52L5.54 1.02H8.8L13.82 15H10.86L9.94 12.34ZM9.18 10.1L7.16 4.26L5.14 10.1H9.18ZM20.5164 15.14C19.5431 15.14 18.6631 14.9733 17.8764 14.64C17.1031 14.3067 16.4897 13.8267 16.0364 13.2C15.5831 12.5733 15.3497 11.8333 15.3364 10.98H18.3364C18.3764 11.5533 18.5764 12.0067 18.9364 12.34C19.3097 12.6733 19.8164 12.84 20.4564 12.84C21.1097 12.84 21.6231 12.6867 21.9964 12.38C22.3697 12.06 22.5564 11.6467 22.5564 11.14C22.5564 10.7267 22.4297 10.3867 22.1764 10.12C21.9231 9.85333 21.6031 9.64667 21.2164 9.5C20.8431 9.34 20.3231 9.16667 19.6564 8.98C18.7497 8.71333 18.0097 8.45333 17.4364 8.2C16.8764 7.93333 16.3897 7.54 15.9764 7.02C15.5764 6.48667 15.3764 5.78 15.3764 4.9C15.3764 4.07333 15.5831 3.35333 15.9964 2.74C16.4097 2.12667 16.9897 1.66 17.7364 1.34C18.4831 1.00667 19.3364 0.84 20.2964 0.84C21.7364 0.84 22.9031 1.19333 23.7964 1.9C24.7031 2.59333 25.2031 3.56667 25.2964 4.82H22.2164C22.1897 4.34 21.9831 3.94667 21.5964 3.64C21.2231 3.32 20.7231 3.16 20.0964 3.16C19.5497 3.16 19.1097 3.3 18.7764 3.58C18.4564 3.86 18.2964 4.26667 18.2964 4.8C18.2964 5.17333 18.4164 5.48667 18.6564 5.74C18.9097 5.98 19.2164 6.18 19.5764 6.34C19.9497 6.48667 20.4697 6.66 21.1364 6.86C22.0431 7.12667 22.7831 7.39333 23.3564 7.66C23.9297 7.92667 24.4231 8.32667 24.8364 8.86C25.2497 9.39333 25.4564 10.0933 25.4564 10.96C25.4564 11.7067 25.2631 12.4 24.8764 13.04C24.4897 13.68 23.9231 14.1933 23.1764 14.58C22.4297 14.9533 21.5431 15.14 20.5164 15.14Z" fill="#D0E1FF"/>
</svg>
