<svg width="13" height="9" viewBox="0 0 13 9" fill="none" xmlns="http://www.w3.org/2000/svg">
<path d="M4.97 6.67H2.19L1.73 8H0.26L2.77 1.01H4.4L6.91 8H5.43L4.97 6.67ZM4.59 5.55L3.58 2.63L2.57 5.55H4.59ZM10.2582 8.07C9.77154 8.07 9.33154 7.98667 8.9382 7.82C8.55154 7.65333 8.24487 7.41333 8.0182 7.1C7.79154 6.78667 7.67487 6.41667 7.6682 5.99H9.1682C9.1882 6.27667 9.2882 6.50333 9.4682 6.67C9.65487 6.83667 9.9082 6.92 10.2282 6.92C10.5549 6.92 10.8115 6.84333 10.9982 6.69C11.1849 6.53 11.2782 6.32333 11.2782 6.07C11.2782 5.86333 11.2149 5.69333 11.0882 5.56C10.9615 5.42667 10.8015 5.32333 10.6082 5.25C10.4215 5.17 10.1615 5.08333 9.8282 4.99C9.37487 4.85667 9.00487 4.72667 8.7182 4.6C8.4382 4.46667 8.19487 4.27 7.9882 4.01C7.7882 3.74333 7.6882 3.39 7.6882 2.95C7.6882 2.53667 7.79154 2.17667 7.9982 1.87C8.20487 1.56333 8.49487 1.33 8.8682 1.17C9.24154 1.00333 9.6682 0.92 10.1482 0.92C10.8682 0.92 11.4515 1.09667 11.8982 1.45C12.3515 1.79667 12.6015 2.28333 12.6482 2.91H11.1082C11.0949 2.67 10.9915 2.47333 10.7982 2.32C10.6115 2.16 10.3615 2.08 10.0482 2.08C9.77487 2.08 9.55487 2.15 9.3882 2.29C9.2282 2.43 9.1482 2.63333 9.1482 2.9C9.1482 3.08667 9.2082 3.24333 9.3282 3.37C9.45487 3.49 9.6082 3.59 9.7882 3.67C9.97487 3.74333 10.2349 3.83 10.5682 3.93C11.0215 4.06333 11.3915 4.19667 11.6782 4.33C11.9649 4.46333 12.2115 4.66333 12.4182 4.93C12.6249 5.19667 12.7282 5.54667 12.7282 5.98C12.7282 6.35333 12.6315 6.7 12.4382 7.02C12.2449 7.34 11.9615 7.59667 11.5882 7.79C11.2149 7.97667 10.7715 8.07 10.2582 8.07Z" fill="#B1CDFD"/>
</svg>
