<svg width="275" height="22" viewBox="0 0 275 22" fill="none" xmlns="http://www.w3.org/2000/svg">
<path d="M3.18 13.78H7.78V16H0.38V2.04H3.18V13.78ZM14.4797 16.18C13.413 16.18 12.453 15.9467 11.5997 15.48C10.7464 15 10.073 14.3267 9.57969 13.46C9.09969 12.5933 8.85969 11.5933 8.85969 10.46C8.85969 9.32667 9.10635 8.32667 9.59969 7.46C10.1064 6.59333 10.793 5.92667 11.6597 5.46C12.5264 4.98 13.493 4.74 14.5597 4.74C15.6264 4.74 16.593 4.98 17.4597 5.46C18.3264 5.92667 19.0064 6.59333 19.4997 7.46C20.0064 8.32667 20.2597 9.32667 20.2597 10.46C20.2597 11.5933 19.9997 12.5933 19.4797 13.46C18.973 14.3267 18.2797 15 17.3997 15.48C16.533 15.9467 15.5597 16.18 14.4797 16.18ZM14.4797 13.74C14.9864 13.74 15.4597 13.62 15.8997 13.38C16.353 13.1267 16.713 12.7533 16.9797 12.26C17.2464 11.7667 17.3797 11.1667 17.3797 10.46C17.3797 9.40667 17.0997 8.6 16.5397 8.04C15.993 7.46667 15.3197 7.18 14.5197 7.18C13.7197 7.18 13.0464 7.46667 12.4997 8.04C11.9664 8.6 11.6997 9.40667 11.6997 10.46C11.6997 11.5133 11.9597 12.3267 12.4797 12.9C13.013 13.46 13.6797 13.74 14.4797 13.74ZM28.4536 4.76C29.7736 4.76 30.8403 5.18 31.6536 6.02C32.4669 6.84667 32.8736 8.00667 32.8736 9.5V16H30.0736V9.88C30.0736 9 29.8536 8.32667 29.4136 7.86C28.9736 7.38 28.3736 7.14 27.6136 7.14C26.8403 7.14 26.2269 7.38 25.7736 7.86C25.3336 8.32667 25.1136 9 25.1136 9.88V16H22.3136V4.92H25.1136V6.3C25.4869 5.82 25.9603 5.44667 26.5336 5.18C27.1203 4.9 27.7603 4.76 28.4536 4.76ZM34.8162 10.42C34.8162 9.3 35.0362 8.30667 35.4762 7.44C35.9296 6.57333 36.5429 5.90667 37.3163 5.44C38.0896 4.97333 38.9496 4.74 39.8963 4.74C40.6163 4.74 41.3029 4.9 41.9563 5.22C42.6096 5.52667 43.1296 5.94 43.5163 6.46V1.2H46.3563V16H43.5163V14.36C43.1696 14.9067 42.6829 15.3467 42.0563 15.68C41.4296 16.0133 40.7029 16.18 39.8763 16.18C38.9429 16.18 38.0896 15.94 37.3163 15.46C36.5429 14.98 35.9296 14.3067 35.4762 13.44C35.0362 12.56 34.8162 11.5533 34.8162 10.42ZM43.5363 10.46C43.5363 9.78 43.4029 9.2 43.1363 8.72C42.8696 8.22667 42.5096 7.85333 42.0563 7.6C41.6029 7.33333 41.1163 7.2 40.5963 7.2C40.0763 7.2 39.5963 7.32667 39.1562 7.58C38.7163 7.83333 38.3563 8.20667 38.0763 8.7C37.8096 9.18 37.6763 9.75333 37.6763 10.42C37.6763 11.0867 37.8096 11.6733 38.0763 12.18C38.3563 12.6733 38.7163 13.0533 39.1562 13.32C39.6096 13.5867 40.0896 13.72 40.5963 13.72C41.1163 13.72 41.6029 13.5933 42.0563 13.34C42.5096 13.0733 42.8696 12.7 43.1363 12.22C43.4029 11.7267 43.5363 11.14 43.5363 10.46ZM54.0109 16.18C52.9443 16.18 51.9843 15.9467 51.1309 15.48C50.2776 15 49.6043 14.3267 49.1109 13.46C48.6309 12.5933 48.3909 11.5933 48.3909 10.46C48.3909 9.32667 48.6376 8.32667 49.1309 7.46C49.6376 6.59333 50.3243 5.92667 51.1909 5.46C52.0576 4.98 53.0243 4.74 54.0909 4.74C55.1576 4.74 56.1243 4.98 56.9909 5.46C57.8576 5.92667 58.5376 6.59333 59.0309 7.46C59.5376 8.32667 59.7909 9.32667 59.7909 10.46C59.7909 11.5933 59.5309 12.5933 59.0109 13.46C58.5043 14.3267 57.8109 15 56.9309 15.48C56.0643 15.9467 55.0909 16.18 54.0109 16.18ZM54.0109 13.74C54.5176 13.74 54.9909 13.62 55.4309 13.38C55.8843 13.1267 56.2443 12.7533 56.5109 12.26C56.7776 11.7667 56.9109 11.1667 56.9109 10.46C56.9109 9.40667 56.6309 8.6 56.0709 8.04C55.5243 7.46667 54.8509 7.18 54.0509 7.18C53.2509 7.18 52.5776 7.46667 52.0309 8.04C51.4976 8.6 51.2309 9.40667 51.2309 10.46C51.2309 11.5133 51.4909 12.3267 52.0109 12.9C52.5443 13.46 53.2109 13.74 54.0109 13.74ZM67.9848 4.76C69.3048 4.76 70.3715 5.18 71.1848 6.02C71.9982 6.84667 72.4048 8.00667 72.4048 9.5V16H69.6048V9.88C69.6048 9 69.3848 8.32667 68.9448 7.86C68.5048 7.38 67.9048 7.14 67.1448 7.14C66.3715 7.14 65.7582 7.38 65.3048 7.86C64.8648 8.32667 64.6448 9 64.6448 9.88V16H61.8448V4.92H64.6448V6.3C65.0182 5.82 65.4915 5.44667 66.0648 5.18C66.6515 4.9 67.2915 4.76 67.9848 4.76ZM82.6331 2.04V16H79.8331V2.04H82.6331ZM91.5395 4.76C92.8595 4.76 93.9262 5.18 94.7395 6.02C95.5529 6.84667 95.9595 8.00667 95.9595 9.5V16H93.1595V9.88C93.1595 9 92.9395 8.32667 92.4995 7.86C92.0595 7.38 91.4595 7.14 90.6995 7.14C89.9262 7.14 89.3129 7.38 88.8595 7.86C88.4195 8.32667 88.1995 9 88.1995 9.88V16H85.3995V4.92H88.1995V6.3C88.5729 5.82 89.0462 5.44667 89.6195 5.18C90.2062 4.9 90.8462 4.76 91.5395 4.76ZM101.882 7.22V12.58C101.882 12.9533 101.969 13.2267 102.142 13.4C102.329 13.56 102.636 13.64 103.062 13.64H104.362V16H102.602C100.242 16 99.0622 14.8533 99.0622 12.56V7.22H97.7422V4.92H99.0622V2.18H101.882V4.92H104.362V7.22H101.882ZM116.676 10.22C116.676 10.62 116.649 10.98 116.596 11.3H108.496C108.563 12.1 108.843 12.7267 109.336 13.18C109.829 13.6333 110.436 13.86 111.156 13.86C112.196 13.86 112.936 13.4133 113.376 12.52H116.396C116.076 13.5867 115.463 14.4667 114.556 15.16C113.649 15.84 112.536 16.18 111.216 16.18C110.149 16.18 109.189 15.9467 108.336 15.48C107.496 15 106.836 14.3267 106.356 13.46C105.889 12.5933 105.656 11.5933 105.656 10.46C105.656 9.31333 105.889 8.30667 106.356 7.44C106.823 6.57333 107.476 5.90667 108.316 5.44C109.156 4.97333 110.123 4.74 111.216 4.74C112.269 4.74 113.209 4.96667 114.036 5.42C114.876 5.87333 115.523 6.52 115.976 7.36C116.443 8.18667 116.676 9.14 116.676 10.22ZM113.776 9.42C113.763 8.7 113.503 8.12667 112.996 7.7C112.489 7.26 111.869 7.04 111.136 7.04C110.443 7.04 109.856 7.25333 109.376 7.68C108.909 8.09333 108.623 8.67333 108.516 9.42H113.776ZM121.52 6.64C121.88 6.05333 122.347 5.59333 122.92 5.26C123.507 4.92667 124.173 4.76 124.92 4.76V7.7H124.18C123.3 7.7 122.633 7.90667 122.18 8.32C121.74 8.73333 121.52 9.45333 121.52 10.48V16H118.72V4.92H121.52V6.64ZM132.946 4.76C134.266 4.76 135.332 5.18 136.146 6.02C136.959 6.84667 137.366 8.00667 137.366 9.5V16H134.566V9.88C134.566 9 134.346 8.32667 133.906 7.86C133.466 7.38 132.866 7.14 132.106 7.14C131.332 7.14 130.719 7.38 130.266 7.86C129.826 8.32667 129.606 9 129.606 9.88V16H126.806V4.92H129.606V6.3C129.979 5.82 130.452 5.44667 131.026 5.18C131.612 4.9 132.252 4.76 132.946 4.76ZM144.268 16.18C143.362 16.18 142.548 16.02 141.828 15.7C141.108 15.3667 140.535 14.92 140.108 14.36C139.695 13.8 139.468 13.18 139.428 12.5H142.248C142.302 12.9267 142.508 13.28 142.868 13.56C143.242 13.84 143.702 13.98 144.248 13.98C144.782 13.98 145.195 13.8733 145.488 13.66C145.795 13.4467 145.948 13.1733 145.948 12.84C145.948 12.48 145.762 12.2133 145.388 12.04C145.028 11.8533 144.448 11.6533 143.648 11.44C142.822 11.24 142.142 11.0333 141.608 10.82C141.088 10.6067 140.635 10.28 140.248 9.84C139.875 9.4 139.688 8.80667 139.688 8.06C139.688 7.44667 139.862 6.88667 140.208 6.38C140.568 5.87333 141.075 5.47333 141.728 5.18C142.395 4.88667 143.175 4.74 144.068 4.74C145.388 4.74 146.442 5.07333 147.228 5.74C148.015 6.39333 148.448 7.28 148.528 8.4H145.848C145.808 7.96 145.622 7.61333 145.288 7.36C144.968 7.09333 144.535 6.96 143.988 6.96C143.482 6.96 143.088 7.05333 142.808 7.24C142.542 7.42667 142.408 7.68667 142.408 8.02C142.408 8.39333 142.595 8.68 142.968 8.88C143.342 9.06667 143.922 9.26 144.708 9.46C145.508 9.66 146.168 9.86667 146.688 10.08C147.208 10.2933 147.655 10.6267 148.028 11.08C148.415 11.52 148.615 12.1067 148.628 12.84C148.628 13.48 148.448 14.0533 148.088 14.56C147.742 15.0667 147.235 15.4667 146.568 15.76C145.915 16.04 145.148 16.18 144.268 16.18ZM157.167 4.76C158.007 4.76 158.754 4.94667 159.407 5.32C160.06 5.68 160.567 6.22 160.927 6.94C161.3 7.64667 161.487 8.5 161.487 9.5V16H158.687V9.88C158.687 9 158.467 8.32667 158.027 7.86C157.587 7.38 156.987 7.14 156.227 7.14C155.454 7.14 154.84 7.38 154.387 7.86C153.947 8.32667 153.727 9 153.727 9.88V16H150.927V1.2H153.727V6.3C154.087 5.82 154.567 5.44667 155.167 5.18C155.767 4.9 156.434 4.76 157.167 4.76ZM165.57 3.6C165.076 3.6 164.663 3.44667 164.33 3.14C164.01 2.82 163.85 2.42667 163.85 1.96C163.85 1.49333 164.01 1.10667 164.33 0.799999C164.663 0.479999 165.076 0.319999 165.57 0.319999C166.063 0.319999 166.47 0.479999 166.79 0.799999C167.123 1.10667 167.29 1.49333 167.29 1.96C167.29 2.42667 167.123 2.82 166.79 3.14C166.47 3.44667 166.063 3.6 165.57 3.6ZM166.95 4.92V16H164.15V4.92H166.95ZM172.516 6.52C172.876 6.01333 173.369 5.59333 173.996 5.26C174.636 4.91333 175.363 4.74 176.176 4.74C177.123 4.74 177.976 4.97333 178.736 5.44C179.509 5.90667 180.116 6.57333 180.556 7.44C181.009 8.29333 181.236 9.28667 181.236 10.42C181.236 11.5533 181.009 12.56 180.556 13.44C180.116 14.3067 179.509 14.98 178.736 15.46C177.976 15.94 177.123 16.18 176.176 16.18C175.363 16.18 174.643 16.0133 174.016 15.68C173.403 15.3467 172.903 14.9267 172.516 14.42V21.28H169.716V4.92H172.516V6.52ZM178.376 10.42C178.376 9.75333 178.236 9.18 177.956 8.7C177.689 8.20667 177.329 7.83333 176.876 7.58C176.436 7.32667 175.956 7.2 175.436 7.2C174.929 7.2 174.449 7.33333 173.996 7.6C173.556 7.85333 173.196 8.22667 172.916 8.72C172.649 9.21333 172.516 9.79333 172.516 10.46C172.516 11.1267 172.649 11.7067 172.916 12.2C173.196 12.6933 173.556 13.0733 173.996 13.34C174.449 13.5933 174.929 13.72 175.436 13.72C175.956 13.72 176.436 13.5867 176.876 13.32C177.329 13.0533 177.689 12.6733 177.956 12.18C178.236 11.6867 178.376 11.1 178.376 10.42ZM198.216 6.36C198.216 7.10667 198.036 7.80667 197.676 8.46C197.33 9.11333 196.776 9.64 196.016 10.04C195.27 10.44 194.323 10.64 193.176 10.64H190.836V16H188.036V2.04H193.176C194.256 2.04 195.176 2.22667 195.936 2.6C196.696 2.97333 197.263 3.48667 197.636 4.14C198.023 4.79333 198.216 5.53333 198.216 6.36ZM193.056 8.38C193.83 8.38 194.403 8.20667 194.776 7.86C195.15 7.5 195.336 7 195.336 6.36C195.336 5 194.576 4.32 193.056 4.32H190.836V8.38H193.056ZM203.004 6.64C203.364 6.05333 203.831 5.59333 204.404 5.26C204.991 4.92667 205.658 4.76 206.404 4.76V7.7H205.664C204.784 7.7 204.118 7.90667 203.664 8.32C203.224 8.73333 203.004 9.45333 203.004 10.48V16H200.204V4.92H203.004V6.64ZM213.21 16.18C212.143 16.18 211.183 15.9467 210.33 15.48C209.477 15 208.803 14.3267 208.31 13.46C207.83 12.5933 207.59 11.5933 207.59 10.46C207.59 9.32667 207.837 8.32667 208.33 7.46C208.837 6.59333 209.523 5.92667 210.39 5.46C211.257 4.98 212.223 4.74 213.29 4.74C214.357 4.74 215.323 4.98 216.19 5.46C217.057 5.92667 217.737 6.59333 218.23 7.46C218.737 8.32667 218.99 9.32667 218.99 10.46C218.99 11.5933 218.73 12.5933 218.21 13.46C217.703 14.3267 217.01 15 216.13 15.48C215.263 15.9467 214.29 16.18 213.21 16.18ZM213.21 13.74C213.717 13.74 214.19 13.62 214.63 13.38C215.083 13.1267 215.443 12.7533 215.71 12.26C215.977 11.7667 216.11 11.1667 216.11 10.46C216.11 9.40667 215.83 8.6 215.27 8.04C214.723 7.46667 214.05 7.18 213.25 7.18C212.45 7.18 211.777 7.46667 211.23 8.04C210.697 8.6 210.43 9.40667 210.43 10.46C210.43 11.5133 210.69 12.3267 211.21 12.9C211.743 13.46 212.41 13.74 213.21 13.74ZM225.384 4.74C226.211 4.74 226.937 4.90667 227.564 5.24C228.191 5.56 228.684 5.98 229.044 6.5V4.92H231.864V16.08C231.864 17.1067 231.657 18.02 231.244 18.82C230.831 19.6333 230.211 20.2733 229.384 20.74C228.557 21.22 227.557 21.46 226.384 21.46C224.811 21.46 223.517 21.0933 222.504 20.36C221.504 19.6267 220.937 18.6267 220.804 17.36H223.584C223.731 17.8667 224.044 18.2667 224.524 18.56C225.017 18.8667 225.611 19.02 226.304 19.02C227.117 19.02 227.777 18.7733 228.284 18.28C228.791 17.8 229.044 17.0667 229.044 16.08V14.36C228.684 14.88 228.184 15.3133 227.544 15.66C226.917 16.0067 226.197 16.18 225.384 16.18C224.451 16.18 223.597 15.94 222.824 15.46C222.051 14.98 221.437 14.3067 220.984 13.44C220.544 12.56 220.324 11.5533 220.324 10.42C220.324 9.3 220.544 8.30667 220.984 7.44C221.437 6.57333 222.044 5.90667 222.804 5.44C223.577 4.97333 224.437 4.74 225.384 4.74ZM229.044 10.46C229.044 9.78 228.911 9.2 228.644 8.72C228.377 8.22667 228.017 7.85333 227.564 7.6C227.111 7.33333 226.624 7.2 226.104 7.2C225.584 7.2 225.104 7.32667 224.664 7.58C224.224 7.83333 223.864 8.20667 223.584 8.7C223.317 9.18 223.184 9.75333 223.184 10.42C223.184 11.0867 223.317 11.6733 223.584 12.18C223.864 12.6733 224.224 13.0533 224.664 13.32C225.117 13.5867 225.597 13.72 226.104 13.72C226.624 13.72 227.111 13.5933 227.564 13.34C228.017 13.0733 228.377 12.7 228.644 12.22C228.911 11.7267 229.044 11.14 229.044 10.46ZM237.399 6.64C237.759 6.05333 238.225 5.59333 238.799 5.26C239.385 4.92667 240.052 4.76 240.799 4.76V7.7H240.059C239.179 7.7 238.512 7.90667 238.059 8.32C237.619 8.73333 237.399 9.45333 237.399 10.48V16H234.599V4.92H237.399V6.64ZM241.965 10.42C241.965 9.3 242.185 8.30667 242.625 7.44C243.078 6.57333 243.685 5.90667 244.445 5.44C245.218 4.97333 246.078 4.74 247.025 4.74C247.851 4.74 248.571 4.90667 249.185 5.24C249.811 5.57333 250.311 5.99333 250.685 6.5V4.92H253.505V16H250.685V14.38C250.325 14.9 249.825 15.3333 249.185 15.68C248.558 16.0133 247.831 16.18 247.005 16.18C246.071 16.18 245.218 15.94 244.445 15.46C243.685 14.98 243.078 14.3067 242.625 13.44C242.185 12.56 241.965 11.5533 241.965 10.42ZM250.685 10.46C250.685 9.78 250.551 9.2 250.285 8.72C250.018 8.22667 249.658 7.85333 249.205 7.6C248.751 7.33333 248.265 7.2 247.745 7.2C247.225 7.2 246.745 7.32667 246.305 7.58C245.865 7.83333 245.505 8.20667 245.225 8.7C244.958 9.18 244.825 9.75333 244.825 10.42C244.825 11.0867 244.958 11.6733 245.225 12.18C245.505 12.6733 245.865 13.0533 246.305 13.32C246.758 13.5867 247.238 13.72 247.745 13.72C248.265 13.72 248.751 13.5933 249.205 13.34C249.658 13.0733 250.018 12.7 250.285 12.22C250.551 11.7267 250.685 11.14 250.685 10.46ZM269.999 4.76C271.359 4.76 272.453 5.18 273.279 6.02C274.119 6.84667 274.539 8.00667 274.539 9.5V16H271.739V9.88C271.739 9.01333 271.519 8.35333 271.079 7.9C270.639 7.43333 270.039 7.2 269.279 7.2C268.519 7.2 267.913 7.43333 267.459 7.9C267.019 8.35333 266.799 9.01333 266.799 9.88V16H263.999V9.88C263.999 9.01333 263.779 8.35333 263.339 7.9C262.899 7.43333 262.299 7.2 261.539 7.2C260.766 7.2 260.153 7.43333 259.699 7.9C259.259 8.35333 259.039 9.01333 259.039 9.88V16H256.239V4.92H259.039V6.26C259.399 5.79333 259.859 5.42667 260.419 5.16C260.993 4.89333 261.619 4.76 262.299 4.76C263.166 4.76 263.939 4.94667 264.619 5.32C265.299 5.68 265.826 6.2 266.199 6.88C266.559 6.24 267.079 5.72667 267.759 5.34C268.453 4.95333 269.199 4.76 269.999 4.76Z" fill="#1D4ED8"/>
</svg>
